<svg xmlns="http://www.w3.org/2000/svg" width="24" height="24" viewBox="0 0 24 24"><defs><style>.a,.b{fill:none;}.a{stroke:#304393;stroke-linecap:round;stroke-linejoin:round;stroke-width:1.5px;}</style></defs><path class="a" d="M8.01,17h7.98"/><path class="a" d="M8.01,13h7.98"/><path class="a" d="M19,9H12.535a1,1,0,0,1-.832-.445L10.3,6.446A1,1,0,0,0,9.465,6H5A2,2,0,0,0,3,8V19a2,2,0,0,0,2,2H19a2,2,0,0,0,2-2V11A2,2,0,0,0,19,9Z"/><path class="a" d="M5,6V5A2,2,0,0,1,7,3H17a2,2,0,0,1,2,2V9"/><path class="b" d="M0,0H24V24H0Z"/></svg>