<svg xmlns="http://www.w3.org/2000/svg" width="24" height="24" viewBox="0 0 24 24"><defs><style>.a,.b{fill:none;}.c,.d{stroke:none;}.d{fill:#fff;}</style></defs><path class="a" d="M0,0H24V24H0Z"/><g class="b"><path class="c" d="M4,13h6a1,1,0,0,0,1-1V4a1,1,0,0,0-1-1H4A1,1,0,0,0,3,4v8A1,1,0,0,0,4,13Zm0,8h6a1,1,0,0,0,1-1V16a1,1,0,0,0-1-1H4a1,1,0,0,0-1,1v4A1,1,0,0,0,4,21Zm10,0h6a1,1,0,0,0,1-1V12a1,1,0,0,0-1-1H14a1,1,0,0,0-1,1v8A1,1,0,0,0,14,21ZM13,4V8a1,1,0,0,0,1,1h6a1,1,0,0,0,1-1V4a1,1,0,0,0-1-1H14A1,1,0,0,0,13,4Z"/><path class="d" d="M 19.5 19.5 L 19.5 12.5 L 14.5 12.5 L 14.5 19.5 L 19.5 19.5 M 9.5 19.5 L 9.5 16.5 L 4.5 16.5 L 4.5 19.5 L 9.5 19.5 M 9.5 11.5 L 9.5 4.5 L 4.5 4.5 L 4.5 11.5 L 9.5 11.5 M 19.5 7.5 L 19.5 4.5 L 14.5 4.5 L 14.5 7.5 L 19.5 7.5 M 20 21 L 14 21 C 13.44999980926514 21 13 20.54999923706055 13 20 L 13 12 C 13 11.44999980926514 13.44999980926514 11 14 11 L 20 11 C 20.54999923706055 11 21 11.44999980926514 21 12 L 21 20 C 21 20.54999923706055 20.54999923706055 21 20 21 Z M 10 21 L 4 21 C 3.450000047683716 21 3 20.54999923706055 3 20 L 3 16 C 3 15.44999980926514 3.450000047683716 15 4 15 L 10 15 C 10.55000019073486 15 11 15.44999980926514 11 16 L 11 20 C 11 20.54999923706055 10.55000019073486 21 10 21 Z M 10 13 L 4 13 C 3.450000047683716 13 3 12.55000019073486 3 12 L 3 4 C 3 3.450000047683716 3.450000047683716 3 4 3 L 10 3 C 10.55000019073486 3 11 3.450000047683716 11 4 L 11 12 C 11 12.55000019073486 10.55000019073486 13 10 13 Z M 20 9 L 14 9 C 13.44999980926514 9 13 8.550000190734863 13 8 L 13 4 C 13 3.450000047683716 13.44999980926514 3 14 3 L 20 3 C 20.54999923706055 3 21 3.450000047683716 21 4 L 21 8 C 21 8.550000190734863 20.54999923706055 9 20 9 Z"/></g></svg>