<svg xmlns="http://www.w3.org/2000/svg" width="23.96" height="24" viewBox="0 0 23.96 24"><defs><style>.a{isolation:isolate;}.b,.c{fill:none;}.b{stroke:#304393;stroke-linecap:round;stroke-linejoin:round;stroke-width:1.5px;}</style></defs><g class="a"><g transform="translate(3.392 2.2)"><path class="b" d="M18.977,12V7.828a2,2,0,0,0-.585-1.414L15.569,3.586A2,2,0,0,0,14.157,3H7A2,2,0,0,0,5,5V19a2,2,0,0,0,2,2H10.99" transform="translate(-5 -3)"/><path class="b" d="M8,9h7.987" transform="translate(-5.005 -3)"/><path class="b" d="M8,12h7.987" transform="translate(-5.005 -3)"/><path class="b" d="M8,15h2" transform="translate(-5.005 -3)"/><path class="b" d="M15.609,12.612a3.926,3.926,0,0,1,0,5.531,3.877,3.877,0,0,1-5.5,0,3.926,3.926,0,0,1,0-5.531,3.877,3.877,0,0,1,5.5,0" transform="translate(-1.168 -0.278)"/><path class="b" d="M15.825,18.325l-2.3-2.3" transform="translate(1.659 1.583)"/></g><path class="c" d="M0,0H23.96V24H0Z"/></g></svg>