<svg xmlns="http://www.w3.org/2000/svg" width="24" height="24" viewBox="0 0 24 24"><defs><style>.a,.b{fill:none;}.b{stroke:#fff;stroke-linecap:round;stroke-linejoin:round;stroke-width:1.5px;}</style></defs><path class="a" d="M0,0H24V24H0Z"/><path class="b" d="M8.806,19.71H6.471A2.181,2.181,0,0,1,4.29,17.529V16.1a2.182,2.182,0,0,0-.639-1.542L2.638,13.542a2.18,2.18,0,0,1,0-3.084L3.651,9.445A2.18,2.18,0,0,0,4.29,7.9V6.471A2.181,2.181,0,0,1,6.471,4.29H7.9a2.182,2.182,0,0,0,1.542-.639l1.013-1.013a2.18,2.18,0,0,1,3.084,0l1.013,1.013A2.182,2.182,0,0,0,16.1,4.29h1.432A2.181,2.181,0,0,1,19.71,6.471V7.9a2.182,2.182,0,0,0,.639,1.542l1.013,1.013a2.18,2.18,0,0,1,0,3.084l-1.013,1.013A2.182,2.182,0,0,0,19.71,16.1v1.432a2.181,2.181,0,0,1-2.181,2.181H16.1a2.182,2.182,0,0,0-1.542.639l-1.013,1.013a2.18,2.18,0,0,1-3.084,0Z"/><path class="b" d="M9,15l6-6"/><path class="b" d="M9.249,9a.25.25,0,1,0,.251.25A.249.249,0,0,0,9.249,9"/><path class="b" d="M14.749,14.5a.25.25,0,1,0,.251.25.249.249,0,0,0-.251-.25"/></svg>