<svg xmlns="http://www.w3.org/2000/svg" width="24" height="24" viewBox="0 0 24 24"><defs><style>.a,.b{fill:none;}.b{stroke:#304393;stroke-linecap:round;stroke-linejoin:round;stroke-width:2px;}</style></defs><path class="a" d="M0,0H24V24H0Z"/><path class="b" d="M12,21h0a9,9,0,0,1-9-9H3a9,9,0,0,1,9-9h0a9,9,0,0,1,9,9h0A9,9,0,0,1,12,21Z"/><path class="b" d="M12,13.25V13a1.873,1.873,0,0,1,1.011-1.6A1.837,1.837,0,0,0,14,9.833a2,2,0,0,0-4,0"/><path class="b" d="M12,16a.25.25,0,1,0,.251.25A.249.249,0,0,0,12,16"/></svg>