<svg xmlns="http://www.w3.org/2000/svg" width="176.653" height="63.949" viewBox="0 0 176.653 63.949"><defs><style>.a,.b{fill:none;}.b{opacity:0.5;}.c{fill:#304393;font-size:25px;font-family:MuseoSans-300, Museo Sans;font-weight:300;}.d{font-family:MuseoSans-700, Museo Sans;font-weight:700;}.e,.f{stroke:none;}.f{fill:#304393;}</style></defs><g transform="translate(-3308 -2)"><g transform="translate(3308 2)"><g class="a" transform="translate(24.666 52.073) rotate(180)"><path class="e" d="M18.5,0l6.167,9.592L18.5,19.185H6.167L0,9.592,6.167,0Z"/><path class="f" d="M 7.25843620300293 1.999998092651367 L 2.377620697021484 9.592377662658691 L 7.25843620300293 17.18475723266602 L 17.40767860412598 17.18475723266602 L 22.28849411010742 9.592377662658691 L 17.40767860412598 1.999998092651367 L 7.25843620300293 1.999998092651367 M 6.166526794433594 -1.9073486328125e-06 L 18.49958801269531 -1.9073486328125e-06 L 24.66611671447754 9.592377662658691 L 18.49958801269531 19.18475723266602 L 6.166526794433594 19.18475723266602 L -1.9073486328125e-06 9.592377662658691 L 6.166526794433594 -1.9073486328125e-06 Z"/></g><g class="b" transform="translate(42.937 63.949) rotate(180)"><path class="e" d="M17.129,0l5.71,10.506-5.71,10.506H5.71L0,10.506,5.71,0Z"/><path class="f" d="M 6.899079322814941 1.999998092651367 L 2.276285171508789 10.50593757629395 L 6.899079322814941 19.01187705993652 L 15.93991661071777 19.01187705993652 L 20.56270980834961 10.50593757629395 L 15.93991661071777 1.999998092651367 L 6.899079322814941 1.999998092651367 M 5.709747314453125 -1.9073486328125e-06 L 17.12924766540527 -1.9073486328125e-06 L 22.83899688720703 10.50593757629395 L 17.12924766540527 21.01187705993652 L 5.709747314453125 21.01187705993652 L -1.9073486328125e-06 10.50593757629395 L 5.709747314453125 -1.9073486328125e-06 Z"/></g><g class="a" transform="translate(42.937 42.024) rotate(180)"><path class="e" d="M17.129,0l5.71,10.506-5.71,10.506H5.71L0,10.506,5.71,0Z"/><path class="f" d="M 6.899079322814941 1.999998092651367 L 2.276285171508789 10.50593757629395 L 6.899079322814941 19.01187705993652 L 15.93991661071777 19.01187705993652 L 20.56270980834961 10.50593757629395 L 15.93991661071777 1.999998092651367 L 6.899079322814941 1.999998092651367 M 5.709747314453125 -1.9073486328125e-06 L 17.12924766540527 -1.9073486328125e-06 L 22.83899688720703 10.50593757629395 L 17.12924766540527 21.01187705993652 L 5.709747314453125 21.01187705993652 L -1.9073486328125e-06 10.50593757629395 L 5.709747314453125 -1.9073486328125e-06 Z"/></g><g class="a" transform="translate(63.036 52.073) rotate(180)"><path class="e" d="M18.5,0l6.167,9.592L18.5,19.185H6.167L0,9.592,6.167,0Z"/><path class="f" d="M 7.25843620300293 1.999998092651367 L 2.377620697021484 9.592377662658691 L 7.25843620300293 17.18475723266602 L 17.40767860412598 17.18475723266602 L 22.28849411010742 9.592377662658691 L 17.40767860412598 1.999998092651367 L 7.25843620300293 1.999998092651367 M 6.166526794433594 -1.9073486328125e-06 L 18.49958801269531 -1.9073486328125e-06 L 24.66611671447754 9.592377662658691 L 18.49958801269531 19.18475723266602 L 6.166526794433594 19.18475723266602 L -1.9073486328125e-06 9.592377662658691 L 6.166526794433594 -1.9073486328125e-06 Z"/></g><g class="b" transform="translate(63.036 30.147) rotate(180)"><path class="e" d="M18.5,0l6.167,10.506L18.5,21.012H6.167L0,10.506,6.167,0Z"/><path class="f" d="M 7.311679840087891 1.999998092651367 L 2.319061279296875 10.50593757629395 L 7.311679840087891 19.01187705993652 L 17.35443496704102 19.01187705993652 L 22.34705352783203 10.50593757629395 L 17.35443496704102 1.999998092651367 L 7.311679840087891 1.999998092651367 M 6.166526794433594 -1.9073486328125e-06 L 18.49958801269531 -1.9073486328125e-06 L 24.66611671447754 10.50593757629395 L 18.49958801269531 21.01187705993652 L 6.166526794433594 21.01187705993652 L -1.9073486328125e-06 10.50593757629395 L 6.166526794433594 -1.9073486328125e-06 Z"/></g><g class="b" transform="translate(24.666 30.147) rotate(180)"><path class="e" d="M18.5,0l6.167,10.506L18.5,21.012H6.167L0,10.506,6.167,0Z"/><path class="f" d="M 7.311679840087891 1.999998092651367 L 2.319061279296875 10.50593757629395 L 7.311679840087891 19.01187705993652 L 17.35443496704102 19.01187705993652 L 22.34705352783203 10.50593757629395 L 17.35443496704102 1.999998092651367 L 7.311679840087891 1.999998092651367 M 6.166526794433594 -1.9073486328125e-06 L 18.49958801269531 -1.9073486328125e-06 L 24.66611671447754 10.50593757629395 L 18.49958801269531 21.01187705993652 L 6.166526794433594 21.01187705993652 L -1.9073486328125e-06 10.50593757629395 L 6.166526794433594 -1.9073486328125e-06 Z"/></g><g class="a" transform="translate(42.937 20.098) rotate(180)"><path class="e" d="M17.129,0l5.71,10.049L17.129,20.1H5.71L0,10.049,5.71,0Z"/><path class="f" d="M 6.873668670654297 1.999998092651367 L 2.300283432006836 10.04915809631348 L 6.873668670654297 18.09831809997559 L 15.9653263092041 18.09831809997559 L 20.53871154785156 10.04915809631348 L 15.9653263092041 1.999998092651367 L 6.873668670654297 1.999998092651367 M 5.709747314453125 -1.9073486328125e-06 L 17.12924766540527 -1.9073486328125e-06 L 22.83899688720703 10.04915809631348 L 17.12924766540527 20.09831809997559 L 5.709747314453125 20.09831809997559 L -1.9073486328125e-06 10.04915809631348 L 5.709747314453125 -1.9073486328125e-06 Z"/></g></g><text class="c" transform="translate(3385.653 28.193)"><tspan x="0" y="0">Wealth</tspan><tspan class="d"><tspan x="0" y="29">Partners</tspan></tspan></text></g></svg>