<svg xmlns="http://www.w3.org/2000/svg" width="24" height="24" viewBox="0 0 24 24"><defs><style>.a,.b{fill:none;}.c,.d{stroke:none;}.d{fill:#fff;}</style></defs><path class="a" d="M0,0H24V24H0Z"/><g class="b"><path class="c" d="M19,8H5a3,3,0,0,0-3,3v4a2.006,2.006,0,0,0,2,2H6v2a2.006,2.006,0,0,0,2,2h8a2.006,2.006,0,0,0,2-2V17h2a2.006,2.006,0,0,0,2-2V11A3,3,0,0,0,19,8ZM15,19H9a1,1,0,0,1-1-1V14h8v4A1,1,0,0,1,15,19ZM17,3H7A1,1,0,0,0,6,4V6A1,1,0,0,0,7,7H17a1,1,0,0,0,1-1V4A1,1,0,0,0,17,3Z"/><path class="d" d="M 7.5 4.5 L 7.5 5.5 L 16.5 5.5 L 16.5 4.5 L 7.5 4.5 M 5 9.5 C 4.17289924621582 9.5 3.5 10.17290019989014 3.5 11 L 3.5 15 C 3.5 15.27103042602539 3.728969573974609 15.5 4 15.5 L 6.5 15.5 L 6.5 12.5 L 17.5 12.5 L 17.5 15.5 L 20 15.5 C 20.27103042602539 15.5 20.5 15.27103042602539 20.5 15 L 20.5 11 C 20.5 10.17290019989014 19.82709884643555 9.5 19 9.5 L 5 9.5 M 7 3 L 17 3 C 17.54999923706055 3 18 3.450000762939453 18 4 L 18 6 C 18 6.549999237060547 17.54999923706055 7 17 7 L 7 7 C 6.450000762939453 7 6 6.549999237060547 6 6 L 6 4 C 6 3.450000762939453 6.450000762939453 3 7 3 Z M 5 8 L 19 8 C 20.65999984741211 8 22 9.340000152587891 22 11 L 22 15 C 22 16.10000038146973 21.10000038146973 17 20 17 L 18 17 L 18 19 C 18 20.10000038146973 17.10000038146973 21 16 21 L 8 21 C 6.899999618530273 21 6 20.10000038146973 6 19 L 6 17 L 4 17 C 2.899999618530273 17 2 16.10000038146973 2 15 L 2 11 C 2 9.340000152587891 3.340000152587891 8 5 8 Z M 15 19 C 15.55000019073486 19 16 18.54999923706055 16 18 L 16 14 L 8 14 L 8 18 C 8 18.54999923706055 8.449999809265137 19 9 19 L 15 19 Z"/></g></svg>