<svg xmlns="http://www.w3.org/2000/svg" width="24" height="24" viewBox="0 0 24 24"><defs><style>.a,.b{fill:none;}.b{stroke:#304393;stroke-linecap:round;stroke-linejoin:round;stroke-width:1.5px;}</style></defs><path class="a" d="M0,0H24V24H0Z"/><path class="b" d="M8.313,7.759a.389.389,0,1,1-.55,0,.389.389,0,0,1,.55,0"/><path class="b" d="M7.244,3.025,10.093,3a1.983,1.983,0,0,1,1.418.58l8.9,8.908a2,2,0,0,1,0,2.829l-5.094,5.1a2,2,0,0,1-2.83,0L3.58,11.5A1.982,1.982,0,0,1,3,10.1V7.287a1.982,1.982,0,0,1,.58-1.4L5.86,3.6a1.979,1.979,0,0,1,1.384-.58Z"/></svg>