<svg xmlns="http://www.w3.org/2000/svg" width="24" height="24" viewBox="0 0 24 24"><defs><style>.a,.b{fill:none;}.a{stroke:#fff;stroke-linecap:round;stroke-linejoin:round;stroke-width:1.5px;}</style></defs><path class="a" d="M18,5h3"/><path class="a" d="M3,5H14"/><path class="a" d="M10,12H21"/><path class="a" d="M3,12H6"/><path class="a" d="M18,19h3"/><path class="a" d="M3,19H14"/><path class="a" d="M17.414,3.586a2,2,0,1,1-2.828,0,2,2,0,0,1,2.828,0"/><path class="a" d="M9.414,10.586a2,2,0,1,1-2.828,0,2,2,0,0,1,2.828,0"/><path class="a" d="M17.414,17.586a2,2,0,1,1-2.828,0,2,2,0,0,1,2.828,0"/><path class="b" d="M0,0H24V24H0Z"/></svg>