<svg xmlns="http://www.w3.org/2000/svg" width="24" height="24" viewBox="0 0 24 24"><defs><style>.a,.b,.c{fill:none;}.b,.c{stroke:#304393;stroke-linecap:round;stroke-linejoin:round;}.b{stroke-width:2px;}.c{stroke-width:1.5px;}</style></defs><path class="a" d="M0,0H24V24H0Z"/><path class="b" d="M12,21h0a9,9,0,0,1-9-9H3a9,9,0,0,1,9-9h0a9,9,0,0,1,9,9h0A9,9,0,0,1,12,21Z"/><path class="c" d="M11.313,8.721l3.195,1.89a.7.7,0,0,1,0,1.211l-3.195,1.89a.7.7,0,0,1-1.061-.605V9.327a.7.7,0,0,1,1.061-.606Z" transform="translate(0 0.784)"/></svg>