<svg xmlns="http://www.w3.org/2000/svg" width="25.462" height="25.462" viewBox="0 0 25.462 25.462"><defs><style>.a,.b{fill:none;}.b{stroke:#304393;stroke-linecap:round;stroke-linejoin:round;stroke-width:1.5px;}</style></defs><path class="a" d="M0,0H25.462V25.462H0Z"/><path class="b" d="M14.8,18h3.183" transform="translate(0.901 1.096)"/><path class="b" d="M14.8,15h3.183" transform="translate(0.901 0.913)"/><path class="b" d="M3,12H22.1" transform="translate(0.183 0.731)"/><path class="b" d="M22.1,19.605A2.491,2.491,0,0,1,19.605,22.1H5.491A2.491,2.491,0,0,1,3,19.605V5.491A2.491,2.491,0,0,1,5.491,3H19.605A2.491,2.491,0,0,1,22.1,5.491Z" transform="translate(0.183 0.183)"/><path class="b" d="M15,7.5h3.183" transform="translate(0.913 0.457)"/><path class="b" d="M6,7.5H9.183" transform="translate(0.365 0.457)"/><path class="b" d="M7.5,9.183V6" transform="translate(0.457 0.365)"/><path class="b" d="M6.44,15.44l2.249,2.249" transform="translate(0.392 0.94)"/><path class="b" d="M6.44,17.689,8.689,15.44" transform="translate(0.392 0.94)"/><path class="b" d="M12,3V22.1" transform="translate(0.731 0.183)"/></svg>