<svg xmlns="http://www.w3.org/2000/svg" width="24" height="24" viewBox="0 0 24 24"><defs><style>.a,.b{fill:none;}.b{stroke:#304393;stroke-linecap:round;stroke-linejoin:round;stroke-width:1.5px;}</style></defs><path class="a" d="M0,0H24V24H0Z"/><path class="b" d="M15,3V5"/><path class="b" d="M11,3V5" transform="translate(0)"/><path class="b" d="M7,3V5" transform="translate(0)"/><path class="b" d="M19,12.26V6a2,2,0,0,0-2-2H5A2,2,0,0,0,3,6V17a2,2,0,0,0,2,2h8.758" transform="translate(0 0)"/><path class="b" d="M7,9h8" transform="translate(0)"/><path class="b" d="M7,13h3" transform="translate(0 0)"/><path class="b" d="M17.5,21A4.5,4.5,0,0,1,13,16.5,4.569,4.569,0,0,1,17.5,12a4.5,4.5,0,0,1,0,9" transform="translate(0 0)"/><path class="b" d="M17.5,14.7v3.6" transform="translate(0 0)"/><path class="b" d="M19.3,16.5H15.7" transform="translate(0)"/></svg>