<svg xmlns="http://www.w3.org/2000/svg" width="23.01" height="24" viewBox="0 0 23.01 24"><defs><style>.a{isolation:isolate;}.b,.c{fill:none;}.b{stroke:#304393;stroke-linecap:round;stroke-linejoin:round;stroke-width:1.5px;}.c{fill-rule:evenodd;}</style></defs><g class="a"><g transform="translate(2.876 3)"><path class="b" d="M5.95,13h6.615" transform="translate(-3.122 -3)"/><path class="b" d="M6,16H9.729" transform="translate(-3.124 -3)"/><path class="b" d="M9.609,21H4.889A1.946,1.946,0,0,1,3,19V5A1.946,1.946,0,0,1,4.889,3h9.645a1.946,1.946,0,0,1,1.889,2v6" transform="translate(-3 -3)"/><path class="b" d="M19.033,12.707,13,19v2h1.917l6.033-6.293a1.03,1.03,0,0,0,0-1.414l-.562-.586a.932.932,0,0,0-1.356,0Z" transform="translate(-3.413 -3)"/><path class="b" d="M7.438,9H6V6H7.438A1.471,1.471,0,0,1,8.876,7.5h0A1.471,1.471,0,0,1,7.438,9Z" transform="translate(-3.124 -3)"/></g><path class="c" d="M0,0H23.01V24H0Z"/></g></svg>