<svg xmlns="http://www.w3.org/2000/svg" width="24" height="24" viewBox="0 0 24 24"><defs><style>.a,.b,.c{fill:none;}.a,.b{stroke:#304393;stroke-linejoin:round;stroke-width:1.5px;}.a{stroke-linecap:round;}</style></defs><path class="a" d="M19,6.94H12.529A1,1,0,0,1,11.7,6.5L10.3,4.437A1,1,0,0,0,9.471,4H5A2,2,0,0,0,3,6V18a2,2,0,0,0,2,2H19a2,2,0,0,0,2-2V8.94a2,2,0,0,0-2-2Z"/><g transform="translate(166.523 -56.191)"><path class="b" d="M-150.563,67.293v6.154h-7.919V65.436h6.089Z"/><path class="b" d="M-144.607,65.436v3.053h3.817V65.436" transform="translate(-11.824)"/></g><path class="c" d="M0,0H24V24H0Z"/></svg>