<svg xmlns="http://www.w3.org/2000/svg" width="24" height="24" viewBox="0 0 24 24"><defs><style>.a,.b{fill:none;}.b{stroke:#304393;stroke-linecap:round;stroke-linejoin:round;stroke-width:1.5px;}</style></defs><path class="a" d="M0,0H24V24H0Z"/><path class="b" d="M14.8,18h3"/><path class="b" d="M14.8,15h3"/><path class="b" d="M3,12H21"/><path class="b" d="M21,18.652A2.348,2.348,0,0,1,18.652,21H5.348A2.348,2.348,0,0,1,3,18.652V5.348A2.348,2.348,0,0,1,5.348,3h13.3A2.348,2.348,0,0,1,21,5.348Z"/><path class="b" d="M15,7.5h3"/><path class="b" d="M6,7.5H9"/><path class="b" d="M7.5,9V6"/><path class="b" d="M6.44,15.44l2.12,2.12"/><path class="b" d="M6.44,17.56l2.12-2.12"/><path class="b" d="M12,3V21"/></svg>