<svg xmlns="http://www.w3.org/2000/svg" width="23.96" height="24" viewBox="0 0 23.96 24"><defs><style>.a{isolation:isolate;}.b,.c{fill:none;}.b{stroke:#304393;stroke-linecap:round;stroke-linejoin:round;stroke-width:1.5px;}</style></defs><g class="a"><g transform="translate(4.992 3)"><path class="b" d="M18.977,12V7.828a2,2,0,0,0-.585-1.414L15.569,3.586A2,2,0,0,0,14.157,3H7A2,2,0,0,0,5,5V19a2,2,0,0,0,2,2H10.99" transform="translate(-5 -3)"/><path class="b" d="M8,9h7.987" transform="translate(-5.005 -3)"/><path class="b" d="M8,12h7.987" transform="translate(-5.005 -3)"/><path class="b" d="M8,15h2" transform="translate(-5.005 -3)"/><path class="b" d="M14.29,16.663l-.728-.781-.728.781" transform="translate(-4.534 -1.08)"/><path class="b" d="M18.825,19.4A3.38,3.38,0,0,1,16.911,20a3.419,3.419,0,0,1-3.349-4.092" transform="translate(-4.535 -1.08)"/><path class="b" d="M19.542,16.564l.728.78.728-.78" transform="translate(-4.545 -1.08)"/><path class="b" d="M15,13.822a3.379,3.379,0,0,1,1.914-.594,3.419,3.419,0,0,1,3.416,3.422,3.382,3.382,0,0,1-.068.67" transform="translate(-4.537 -1.08)"/></g><path class="c" d="M0,0H23.96V24H0Z"/></g></svg>