<svg xmlns="http://www.w3.org/2000/svg" width="24" height="24" viewBox="0 0 24 24"><defs><style>.a,.b{fill:none;}.a{stroke:#304393;stroke-linecap:round;stroke-linejoin:round;stroke-width:1.5px;}</style></defs><g transform="translate(3 3)"><path class="a" d="M12,6V7.5" transform="translate(-3 -3)"/><path class="a" d="M18.364,5.636a9,9,0,1,1-12.728,0,9,9,0,0,1,12.728,0" transform="translate(-3 -3)"/><path class="a" d="M12,18V16.5" transform="translate(-3 -3)"/><path class="a" d="M9,14.255H9a2.25,2.25,0,0,0,2.25,2.25h1.643A2.107,2.107,0,0,0,15,14.4h0a2.106,2.106,0,0,0-1.594-2.043l-2.812-.7A2.106,2.106,0,0,1,9,9.607H9A2.107,2.107,0,0,1,11.107,7.5H12.75A2.25,2.25,0,0,1,15,9.75h0" transform="translate(-3 -3)"/></g><path class="b" d="M0,0H24V24H0Z"/></svg>