<svg xmlns="http://www.w3.org/2000/svg" width="23.96" height="24" viewBox="0 0 23.96 24"><defs><style>.a{isolation:isolate;}.b,.c{fill:none;}.b{stroke:#304393;stroke-linecap:round;stroke-linejoin:round;stroke-width:1.5px;}</style></defs><g class="a"><g transform="translate(3.392 2.2)"><path class="b" d="M18.977,12V7.828a2,2,0,0,0-.585-1.414L15.569,3.586A2,2,0,0,0,14.157,3H7A2,2,0,0,0,5,5V19a2,2,0,0,0,2,2H10.99" transform="translate(-5 -3)"/><path class="b" d="M8,9h7.987" transform="translate(-5.005 -3)"/><path class="b" d="M8,12h7.987" transform="translate(-5.005 -3)"/><path class="b" d="M8,15h2" transform="translate(-5.005 -3)"/><path class="b" d="M14.97,12.5a3.548,3.548,0,0,1,0,5A3.5,3.5,0,0,1,10,17.5a3.548,3.548,0,0,1,0-5,3.5,3.5,0,0,1,4.974,0" transform="translate(-0.354 0.534)"/><path class="b" d="M16.2,18.183,13.53,16.03" transform="translate(1.606 1.683)"/></g><path class="c" d="M0,0H23.96V24H0Z"/></g></svg>