<svg xmlns="http://www.w3.org/2000/svg" width="24" height="24" viewBox="0 0 24 24"><defs><style>.a,.b{fill:none;}.b{stroke:#2b3d8b;stroke-linecap:round;stroke-linejoin:round;stroke-width:1.5px;}</style></defs><path class="a" d="M0,0H24V24H0Z"/><path class="b" d="M12,3V7.47"/><path class="b" d="M14.25,14.81h7.7"/><path class="b" d="M2.05,17.06h7.7"/><path class="b" d="M14.453,14.278a1.954,1.954,0,0,0-.215,1.294,3.938,3.938,0,0,0,7.728,0,1.954,1.954,0,0,0-.215-1.294L18.1,7.5l-3.65,6.778Z"/><path class="b" d="M2.247,16.528a1.954,1.954,0,0,0-.215,1.294,3.939,3.939,0,0,0,7.729,0,1.954,1.954,0,0,0-.215-1.294L5.9,9.75l-3.65,6.778Z"/><path class="b" d="M18.1,7.5h0A17.341,17.341,0,0,0,6.569,9.378L5.9,9.75"/></svg>