<svg xmlns="http://www.w3.org/2000/svg" width="24" height="24" viewBox="0 0 24 24"><defs><style>.a,.b{fill:none;}.a{stroke:#304393;stroke-linecap:round;stroke-linejoin:round;stroke-width:1.5px;}</style></defs><path class="a" d="M8,6V2m8,4V2"/><path class="a" d="M3,9H21"/><path class="a" d="M3,6V19a2,2,0,0,0,2,2H19a2,2,0,0,0,2-2V6a2,2,0,0,0-2-2H5A2,2,0,0,0,3,6Z"/><path class="a" d="M13.232,12.5A1.81,1.81,0,0,1,15,14.3c0,1.76-2.946,3.2-3,3.2"/><path class="a" d="M10.768,12.5A1.81,1.81,0,0,0,9,14.3c0,1.76,2.946,3.2,3,3.2"/><path class="a" d="M12,13.035a1.625,1.625,0,0,1,1.232-.535"/><path class="a" d="M12,13.035a1.625,1.625,0,0,0-1.232-.535"/><path class="b" d="M0,0H24V24H0Z"/></svg>